<?xml version="1.0" standalone="no"?>
<!DOCTYPE svg PUBLIC "-//W3C//DTD SVG 20010904//EN" "http://www.w3.org/TR/2001/REC-SVG-20010904/DTD/svg10.dtd">
<svg version="1.0" xmlns="http://www.w3.org/2000/svg" width="200.000000pt" height="200.000000pt"
    viewBox="0 0 200.000000 200.000000" preserveAspectRatio="xMidYMid meet">
    <g transform="translate(0.000000,200.000000) scale(0.100000,-0.100000)" fill="#111827" stroke="none">
        <path d="M834 1986 c-153 -29 -263 -72 -381 -148 -263 -171 -431 -464 -450
-786 l-6 -103 132 3 133 3 84 175 c46 96 93 183 105 193 27 22 71 22 99 -1 19
-15 29 -55 70 -270 27 -139 50 -257 52 -263 2 -5 31 212 66 482 48 381 66 496
79 511 22 25 94 25 117 -1 13 -14 36 -132 90 -452 l72 -434 43 105 c24 58 53
113 63 123 26 22 83 22 106 -1 10 -10 44 -93 75 -185 31 -91 62 -179 68 -194
10 -27 11 -25 60 67 76 145 55 134 291 138 l201 3 -6 102 c-26 440 -323 804
-747 914 -118 31 -309 39 -416 19z" />
        <path d="M825 719 c-67 -526 -65 -519 -136 -519 -66 0 -71 11 -123 281 -26
134 -59 306 -74 382 l-26 138 -44 -88 c-66 -132 -49 -123 -238 -123 l-163 0
20 -72 c45 -160 154 -337 280 -452 125 -115 262 -189 429 -234 83 -22 115 -25
250 -25 135 0 167 3 250 25 167 45 304 119 429 234 126 115 235 292 280 452
l20 72 -147 0 -147 0 -83 -157 c-46 -87 -95 -168 -108 -180 -30 -28 -77 -30
-102 -5 -10 10 -44 94 -76 187 -32 94 -62 176 -65 183 -4 7 -30 -42 -62 -118
-29 -72 -62 -139 -72 -148 -10 -9 -34 -16 -53 -16 -65 0 -69 10 -119 324 -25
157 -49 296 -53 308 -5 15 -30 -155 -67 -449z" />
    </g>
</svg>