<?xml version="1.0" standalone="no"?>
<!DOCTYPE svg PUBLIC "-//W3C//DTD SVG 20010904//EN"
 "http://www.w3.org/TR/2001/REC-SVG-20010904/DTD/svg10.dtd">
<svg version="1.0" xmlns="http://www.w3.org/2000/svg"
 width="700.000000pt" height="700.000000pt" viewBox="0 0 700.000000 700.000000"
 preserveAspectRatio="xMidYMid meet">
<metadata>
Created by potrace 1.14, written by Peter Selinger 2001-2017
</metadata>
<g transform="translate(0.000000,700.000000) scale(0.100000,-0.100000)"
fill="#000000" stroke="none">
<path d="M3219 6986 c-2 -2 -44 -6 -94 -10 -108 -8 -125 -10 -285 -42 -226
-45 -530 -133 -665 -194 -22 -9 -50 -21 -63 -25 -37 -11 -269 -128 -362 -182
-687 -400 -1202 -1000 -1493 -1738 -98 -249 -177 -542 -213 -790 -3 -22 -7
-51 -9 -65 -2 -14 -7 -56 -10 -95 -4 -38 -9 -83 -11 -100 -2 -16 -7 -118 -10
-226 l-7 -197 204 4 c112 3 274 6 359 8 85 3 200 5 256 5 l101 1 56 118 c267
560 405 839 499 1005 40 71 87 143 104 161 37 38 118 65 185 62 123 -6 190
-59 231 -181 30 -90 84 -324 113 -485 2 -14 9 -50 15 -80 14 -69 60 -307 66
-340 3 -14 7 -34 9 -45 2 -11 11 -58 20 -105 9 -47 28 -141 41 -210 14 -69 28
-138 31 -155 13 -76 62 -307 65 -311 4 -3 30 159 42 261 4 27 29 209 42 295 3
19 7 55 10 80 2 25 6 56 9 70 2 14 9 63 15 110 6 47 13 96 15 110 2 14 13 97
25 185 22 173 29 226 35 265 2 14 6 46 9 73 3 26 9 68 12 95 3 26 7 58 9 72 2
14 7 48 10 75 3 28 8 68 11 90 3 22 8 54 10 70 2 17 6 53 10 80 4 28 8 61 9
75 8 73 16 138 20 160 2 14 7 45 10 70 3 25 8 61 10 80 3 19 8 53 11 75 8 70
13 108 25 190 13 97 15 106 23 175 16 117 59 393 81 516 33 181 56 217 158
244 67 18 194 8 252 -20 51 -25 68 -51 95 -149 17 -62 72 -317 85 -392 3 -19
12 -68 20 -109 8 -41 17 -88 20 -105 4 -25 77 -446 90 -525 3 -14 7 -36 9 -50
3 -14 8 -41 10 -60 3 -19 8 -46 11 -60 3 -14 14 -79 25 -145 11 -66 22 -131
25 -145 2 -13 7 -42 10 -65 3 -22 8 -47 10 -55 2 -8 6 -35 9 -60 3 -25 8 -56
11 -70 3 -14 7 -36 9 -50 25 -143 37 -218 41 -248 2 -19 7 -42 9 -51 3 -9 8
-38 11 -65 3 -27 7 -51 9 -55 2 -3 7 -28 10 -56 3 -27 8 -60 10 -71 2 -12 7
-39 11 -60 11 -72 15 -99 20 -124 3 -14 7 -38 9 -55 6 -41 38 -226 41 -245 2
-8 4 -26 4 -40 1 -38 13 -16 76 140 94 236 113 278 192 437 41 84 90 167 108
186 63 65 225 84 320 37 62 -31 82 -64 168 -281 64 -162 90 -233 182 -499 183
-533 218 -624 236 -628 22 -4 60 59 224 373 167 320 212 357 460 380 55 5 244
9 915 20 135 2 256 4 269 4 l24 1 -7 188 c-3 103 -8 203 -10 222 -3 19 -7 67
-10 105 -4 39 -8 81 -11 94 -2 13 -7 42 -9 65 -18 138 -63 341 -114 511 -198
651 -551 1193 -1076 1650 -308 269 -769 526 -1171 654 -118 37 -195 60 -220
65 -11 3 -51 12 -90 21 -38 9 -81 18 -95 20 -14 2 -70 10 -125 19 -94 14 -154
21 -271 32 -65 6 -569 15 -575 10z"/>
<path d="M3106 4055 c-7 -28 -31 -165 -41 -230 -3 -23 -8 -52 -10 -65 -3 -14
-8 -45 -11 -70 -5 -43 -9 -67 -18 -127 -6 -36 -36 -259 -41 -298 -2 -16 -8
-61 -14 -100 -5 -38 -13 -96 -16 -128 -4 -32 -8 -66 -10 -75 -1 -9 -6 -42 -10
-72 -3 -30 -8 -66 -10 -80 -2 -14 -7 -50 -10 -80 -3 -30 -7 -66 -10 -80 -5
-28 -6 -40 -35 -270 -28 -225 -30 -241 -35 -270 -2 -14 -7 -52 -10 -85 -3 -33
-8 -67 -10 -75 -2 -8 -6 -40 -10 -70 -3 -30 -7 -66 -10 -80 -3 -22 -17 -127
-31 -235 -2 -22 -7 -51 -9 -65 -2 -14 -7 -45 -10 -70 -4 -25 -8 -56 -10 -70
-2 -14 -11 -70 -20 -125 -9 -55 -18 -113 -20 -130 -16 -96 -59 -258 -83 -304
-40 -80 -65 -94 -170 -99 -217 -10 -263 48 -352 443 -24 109 -80 383 -96 475
-3 14 -13 68 -24 120 -10 52 -31 156 -45 230 -15 74 -28 142 -30 151 -2 9 -6
32 -9 50 -3 19 -15 81 -26 139 -23 114 -135 696 -144 744 -3 16 -10 52 -15 80
-12 60 -19 98 -27 146 -3 19 -9 51 -14 70 -9 36 -22 115 -23 138 0 6 -2 12 -4
12 -1 0 -64 -123 -139 -272 -142 -285 -179 -346 -228 -388 -49 -41 -65 -47
-166 -66 -19 -4 -258 -7 -530 -8 -424 -2 -494 -4 -491 -17 15 -61 92 -331 101
-354 7 -17 13 -37 15 -45 8 -36 101 -254 159 -374 234 -478 559 -884 985
-1229 158 -128 387 -272 603 -379 117 -58 349 -156 387 -163 11 -2 28 -8 38
-13 22 -12 274 -85 363 -106 127 -30 247 -47 380 -53 270 -13 844 -6 940 11
23 4 65 11 135 22 125 20 462 124 650 201 121 49 389 180 435 213 15 11 33 20
39 20 6 0 11 5 11 10 0 6 4 10 10 10 13 0 218 139 300 203 216 170 399 346
550 532 36 44 68 82 71 85 3 3 46 64 96 135 248 356 407 687 518 1075 29 102
55 192 57 200 3 12 -67 14 -510 15 l-514 0 -43 -80 c-23 -44 -65 -123 -92
-175 -261 -496 -409 -756 -503 -885 -67 -91 -195 -136 -304 -105 -71 20 -98
55 -166 218 -34 81 -65 156 -70 167 -5 11 -44 119 -86 240 -202 575 -252 710
-265 710 -13 0 -127 -214 -176 -330 -11 -27 -45 -106 -74 -175 -92 -219 -189
-402 -228 -427 -85 -57 -262 -62 -322 -10 -45 38 -99 170 -122 298 -3 13 -12
58 -21 100 -13 64 -59 328 -80 459 -3 19 -7 44 -10 55 -2 11 -7 45 -11 75 -4
30 -9 64 -11 75 -2 11 -11 63 -19 115 -22 134 -24 148 -36 215 -6 33 -12 71
-14 85 -2 14 -6 39 -9 55 -10 61 -37 221 -42 250 -14 89 -26 155 -34 195 -5
25 -11 59 -14 75 -17 120 -27 142 -40 90z"/>
</g>
</svg>
